<?xml version="1.0" encoding="UTF-8" standalone="no"?>
<!DOCTYPE svg PUBLIC "-//W3C//DTD SVG 1.1//EN" "http://www.w3.org/Graphics/SVG/1.1/DTD/svg11.dtd">
<svg version="1.1" xmlns="http://www.w3.org/2000/svg" xmlns:xlink="http://www.w3.org/1999/xlink" preserveAspectRatio="xMidYMid meet" viewBox="0 0 640 640" width="640" height="640"><defs><path d="M286.26 278.21L284.53 287.75L282.8 298.16L280.19 310.3L278.46 320.71L276.73 330.24L274.12 345.85L272.39 358.86L271.52 371.87L269.79 385.74L268.92 397.88L267.19 413.49L266.32 432.57L265.45 446.45L265.45 460.32L265.45 482.87L266.32 495.87L267.19 507.15L268.92 516.69L273.26 527.96L281.06 544.44L288.87 554.84L301.01 565.25L312.28 569.58L324.42 570.45L340.9 569.58L353.04 563.51L362.58 554.84L367.78 546.17L374.72 534.03L383.39 513.22L385.99 503.68L388.59 485.47L389.46 472.46L390.33 462.05L390.33 449.91L385.12 440.37L376.45 434.3L354.77 428.23L343.5 428.23L331.36 428.23L312.28 433.44L298.41 439.51L287.13 446.45L269.79 458.59L259.38 467.26L247.24 476.8L236.84 486.33L227.3 495.87L216.02 506.28L199.55 515.82L179.6 527.09L163.99 537.5L140.58 551.37L124.97 558.31L113.7 562.65L90.28 566.11L79.01 566.11L64.27 560.91L49.53 543.57L45.19 530.56L44.32 517.55L44.32 501.08L45.19 488.94L49.53 469.86L52.13 459.45L55.6 443.84L59.07 432.57L62.53 419.56L68.61 402.22L73.81 390.95L79.88 376.2L84.21 363.2L90.28 345.85L98.09 329.38L104.16 316.37L108.49 307.7L115.43 297.29L120.64 287.75L132.78 269.54L144.05 253.93L162.26 228.79L174.4 212.31L186.54 197.57L202.15 181.96L210.82 175.02L221.23 166.35L231.63 157.68L244.64 148.14L258.52 139.47L269.79 131.66L288 116.92L300.14 108.25L309.68 101.31L318.35 94.37L327.89 89.17L345.23 80.5L361.71 72.69L382.52 63.16L394.66 57.95L407.67 51.88L429.35 41.48L442.36 38.01L457.1 32.81L475.31 27.6L489.18 24.13L502.19 23.27L523.87 22.4L545.55 26.73L562.02 33.67L570.7 38.01L582.84 46.68L590.64 55.35L596.71 66.62L600.18 82.23L597.58 103.05L591.51 116.05L586.31 127.33L578.5 142.07L569.83 155.08L558.56 168.95L536.88 198.43L526.47 209.71L515.2 219.25L508.26 226.18L500.46 235.72L487.45 251.33L473.57 266.94L457.1 281.68L449.29 289.49L436.29 305.96L428.48 315.5L415.47 330.24L404.2 341.52L391.19 357.13L372.98 378.81L361.71 392.68L351.3 404.82L343.5 410.89" id="e4VTFUHJF"></path><path d="M169.55 543.42L173.15 553.33L178.56 564.14L183.96 574.05L189.37 583.96L195.68 592.07L205.59 584.86L215.5 579.46L224.5 574.95L235.32 570.45L245.23 566.85L254.23 562.34L253.33 551.53L247.93 540.72L241.62 530.81L237.12 521.8L241.62 530.81L253.33 549.73L258.74 558.74L265.95 569.55L275.86 581.26L284.86 589.37L292.97 595.68" id="c5LAupCQ9t"></path><path d="M389.46 390.36L393.06 400.27L398.47 411.08L403.87 420.99L409.28 430.9L415.59 439.01L425.5 431.8L435.41 426.4L444.41 421.89L455.23 417.39L465.14 413.78L474.14 409.28L473.24 398.47L467.84 387.66L461.53 377.75L457.03 368.74L461.53 377.75L473.24 396.67L478.65 405.68L485.86 416.49L495.77 428.2L504.77 436.31L512.88 442.61" id="b2WCNFQ20y"></path></defs><g><g><g><g><use xlink:href="#e4VTFUHJF" opacity="1" fill-opacity="0" stroke="#000000" stroke-width="1" stroke-opacity="1"></use></g></g><g><g><use xlink:href="#c5LAupCQ9t" opacity="1" fill-opacity="0" stroke="#000000" stroke-width="1" stroke-opacity="1"></use></g></g><g><g><use xlink:href="#b2WCNFQ20y" opacity="1" fill-opacity="0" stroke="#000000" stroke-width="1" stroke-opacity="1"></use></g></g></g></g></svg>