<?xml version="1.0" encoding="UTF-8" standalone="no"?>
<!DOCTYPE svg PUBLIC "-//W3C//DTD SVG 1.1//EN" "http://www.w3.org/Graphics/SVG/1.1/DTD/svg11.dtd">
<svg version="1.1" xmlns="http://www.w3.org/2000/svg" xmlns:xlink="http://www.w3.org/1999/xlink" preserveAspectRatio="xMidYMid meet" viewBox="0 0 640 640" width="640" height="640"><defs><path d="M305.36 271.95L305.36 282.02L304.44 292.09L303.53 305.81L301.7 316.8L300.78 332.36L299.87 342.42L298.95 353.41L298.03 366.22L296.2 381.78L295.29 397.34L293.46 410.15L292.54 422.96L291.63 435.77L291.63 445.84L290.71 456.82L290.71 472.38L290.71 482.45L290.71 492.52L293.46 504.41L298.03 516.31L307.19 522.72L319.08 524.55L331.9 524.55L341.97 519.06L352.03 505.33L358.44 494.35L364.85 484.28L372.17 469.64L375.83 456.82L376.74 445.84L369.42 438.52L358.44 437.6L348.37 437.6L337.39 440.35L326.41 444.93L317.25 451.33L308.1 455.91L299.87 462.31L288.88 470.55L279.73 476.96L270.58 481.53L261.43 487.03L252.27 492.52L242.21 499.84L231.22 507.16L217.5 516.31L202.85 523.63L188.21 528.21L177.23 531.87L163.5 533.7L153.43 533.7L141.53 529.13L135.13 512.65L134.21 501.67L134.21 487.94L134.21 473.3L134.21 457.74L136.96 442.18L142.45 421.13L148.86 403.74L156.18 389.1L162.58 373.54L170.82 355.24L182.72 332.36L190.04 318.63L198.28 304.9L207.43 290.26L216.58 276.53L230.31 259.14L240.38 248.16L251.36 235.34L269.66 214.29L287.97 194.16L299.87 183.18L311.76 171.28L323.66 160.3L342.88 143.82L353.86 134.67L365.76 125.52L377.66 117.28L386.81 111.79L398.71 103.55L410.61 96.23L421.59 87.99L435.32 78.84L448.13 72.44L460.03 67.86L476.5 65.11L493.89 65.11L503.96 65.11L514.02 68.78L522.26 78.84L525.92 88.91L526.84 100.81L518.6 134.67L512.19 146.57L503.04 163.04L494.8 176.77L482.91 195.07L466.43 217.95L460.03 226.19L453.62 235.34L447.21 244.5L438.98 257.31L426.16 273.78L417.01 285.68L405.11 302.15L399.62 311.31L392.3 322.29L385.9 330.52L378.57 337.85L370.34 348.83L363.01 357.98L355.69 367.13L348.37 376.29L341.97 386.35L335.56 395.5L329.15 404.66L322.75 412.89" id="d8rEvLiyzf"></path></defs><g><g><g><g><use xlink:href="#d8rEvLiyzf" opacity="1" fill-opacity="0" stroke="#000000" stroke-width="4" stroke-opacity="1"></use></g></g></g></g></svg>