<?xml version="1.0" encoding="UTF-8" standalone="no"?>
<!DOCTYPE svg PUBLIC "-//W3C//DTD SVG 1.1//EN" "http://www.w3.org/Graphics/SVG/1.1/DTD/svg11.dtd">
<svg version="1.1" xmlns="http://www.w3.org/2000/svg" xmlns:xlink="http://www.w3.org/1999/xlink" preserveAspectRatio="xMidYMid meet" viewBox="0 0 640 640" width="640" height="640"><defs><path d="M302.82 145.48L302.82 156.33L302.82 167.18L301.91 179.84L300.11 191.6L299.2 203.35L298.3 216.01L296.49 228.67L294.68 238.62L292.87 248.56L291.06 260.32L289.26 272.98L287.45 288.35L287.45 300.11L287.45 313.67L287.45 324.52L287.45 335.37L287.45 348.94L289.26 361.6L292.87 372.45L297.39 381.49L303.72 391.44L312.77 397.77L325.43 399.57L337.18 399.57L347.13 391.44L354.36 383.3L360.69 374.26L367.02 362.5L371.54 353.46L375.16 342.61L377.87 332.66L377.87 321.81L370.64 312.77L361.6 306.44L350.74 302.82L338.09 302.82L325.43 302.82L313.67 308.24L301.91 315.48L291.06 323.62L282.93 330.85L274.79 338.09L267.55 345.32L258.51 351.65L249.47 357.98L240.43 366.12L233.19 373.35L225.05 381.49L216.91 388.72L204.26 397.77L192.5 404.1L179.84 408.62L168.09 411.33L155.43 414.04L143.67 414.04L131.91 409.52L125.59 401.38L121.06 387.82L118.35 370.64L118.35 352.55L119.26 331.76L121.06 319.1L123.78 305.53L126.49 292.87L130.11 279.31L133.72 269.36L140.05 245.85L146.38 230.48L150.9 220.53L156.33 210.59L163.56 196.12L170.8 184.36L178.94 170.8L185.27 162.66L197.93 148.19L205.16 140.05L219.63 123.78L233.19 108.4L240.43 101.17L248.56 94.84L260.32 84.89L272.98 74.95L288.35 64.1L299.2 55.96L309.15 49.63L318.19 45.11L331.76 39.68L341.7 36.97L351.65 34.26L361.6 31.54L374.26 28.83L384.2 27.02L399.57 24.31L420.37 24.31L441.17 27.02L452.02 29.73L466.49 36.06L478.24 43.3L487.29 52.34L492.71 61.38L496.33 71.33L498.14 83.99L499.04 97.55L499.04 108.4L499.04 121.06L495.43 134.63L491.81 144.57L486.38 154.52L480.05 166.28L471.91 178.94L465.59 188.88L454.73 206.06L444.79 221.44L433.94 242.23L429.41 251.28L418.56 272.98L411.33 287.45L404.1 305.53L396.86 324.52L391.44 341.7L388.72 353.46L386.01 367.02L384.2 379.68L383.3 391.44L383.3 411.33L384.2 430.32L387.82 442.98L391.44 452.93L397.77 465.59L404.1 476.44L411.33 487.29L426.7 508.99L433.03 517.13L442.98 526.17L456.54 536.12L468.3 544.26L477.34 550.59L494.52 557.82L508.99 559.63L521.65 559.63L531.6 556.91" id="bbOXNHBayn"></path><path d="M158.35 546.13L165.3 539.88L173.65 529.45L179.21 521.8L184.07 512.77L189.63 505.12L196.59 497.47L202.84 487.74L208.4 478.7L213.97 468.27L218.83 459.93L223.7 450.2L227.87 443.25L233.43 430.73L237.6 422.39L241.08 414.75L244.55 405.71L248.03 397.37L251.51 388.33L252.9 397.37L253.59 405.71L254.98 414.05L256.37 422.39L260.54 431.43L264.02 439.08L268.88 446.72L275.14 454.37L281.4 459.93L288.35 465.49L296 468.97L305.73 470.36L313.38 467.58L321.02 461.32L326.58 455.07L332.15 448.11L339.1 439.77L346.05 428.65L351.61 416.83L354.39 409.18L358.56 402.23L359.26 411.27L357.87 423.09L356.48 433.52L354.39 444.64L354.39 452.98L353.7 462.71L353.7 473.14L353.7 482.18L353.7 491.91L355.09 503.03L357.17 511.38L361.34 524.58L366.21 536.4L369.69 543.35L375.25 552.39L381.5 562.12L387.06 571.16L392.63 578.11L398.88 582.98" id="c2Vsj0F1nN"></path></defs><g><g><g><g><use xlink:href="#bbOXNHBayn" opacity="1" fill-opacity="0" stroke="#000000" stroke-width="4" stroke-opacity="1"></use></g></g><g><g><use xlink:href="#c2Vsj0F1nN" opacity="1" fill-opacity="0" stroke="#000000" stroke-width="4" stroke-opacity="1"></use></g></g></g></g></svg>